<svg xmlns="http://www.w3.org/2000/svg" width="132.051" height="102.614" viewBox="0 0 132.051 102.614"><defs><style>.a,.c{fill:#1a1818;}.b{fill:#0070be;}.c{font-size:1px;font-family:Futura-Bold, Futura;font-weight:700;}.d{fill:#fff;}</style></defs><g transform="translate(-22.642 -41.274)"><rect class="a" width="25.173" height="71.167" transform="translate(98.692 41.287)"/><rect class="b" width="25.195" height="71.094" transform="translate(73.499 72.767)"/><g transform="translate(89.957 92.21)"><text class="c" transform="matrix(0.433, -0.901, -0.901, -0.433, 0.901, 0.433)"><tspan x="0" y="0"> </tspan></text></g><g transform="translate(75.164 41.274)"><path class="d" d="M152.864,126.765c-8.391,9.611-3.662,25.325,4.576,30.969l-.041-5.387C149.314,145.94,148.44,131.952,152.864,126.765Z" transform="translate(-133.872 -81.168)"/><path class="d" d="M169.6,121.389c8.391-9.611,3.662-25.325-4.577-30.969v5.187C173.111,102.015,174.026,116.2,169.6,121.389Z" transform="translate(-141.606 -64.208)"/><path class="d" d="M121.434,147.824l-.119-1.6a67.394,67.394,0,0,1-.134-8.178,5.929,5.929,0,0,1,.084-1.126,40.337,40.337,0,0,1,.41-4.322,22.921,22.921,0,0,1,.369-2.346,2.766,2.766,0,0,1,.132-.639c.186-1.072.447-1.979.713-3.023a12.51,12.51,0,0,1,.544-1.6c.422-1.256.78-2.149,1.257-3.274a12.9,12.9,0,0,1,.754-1.6c.05-.1.023-.18.116-.207.341-.523.551-.973.891-1.458.341-.522.586-.994.912-1.437l.742-.977c.48-.632.86-1.122,1.389-1.722.314-.382,1.852-1.982,1.906-1.988.3-.3,1.213-1.157,1.213-1.157a20.307,20.307,0,0,1,2.1-1.4c.032-.018,1.553-.7,1.645-.727a7.8,7.8,0,0,1,5.766.071c.327.123,1.043.48,1.106.515l.21.134a9.118,9.118,0,0,1,1.108.771c-.012.06.644.561.95.882.195.218.371.389.549.6a13.052,13.052,0,0,1,1.367,2l.474,1.048s.579,1.877.747,2.778a21.03,21.03,0,0,1,.231,5.846l-.109,1.065a14.547,14.547,0,0,1-.8,2.544,5.036,5.036,0,0,1-.658,1.043c-.386.43-1.543,1.418-2.662.617-.022-.017.023-10.8.023-10.8a7.831,7.831,0,0,1,2.38,4.126,11.178,11.178,0,0,1-.19,5.084,5.178,5.178,0,0,0,.555-1.306,14.744,14.744,0,0,0,.176-6.662,7.776,7.776,0,0,0-.482-1.673,10.781,10.781,0,0,0-.5-1.128c-.311-.554-.57-1-.914-1.529l-.38-.474-.194-.2-.171-.156a9.42,9.42,0,0,0-1.085-1.088c-.074-.147-.272-.164-.279-.246-.206-.134-.685-.457-.685-.457a1.977,1.977,0,0,1-.48-.285c-.283-.091-.349-.162-.547-.219a6.694,6.694,0,0,0-3.787-.4,13.844,13.844,0,0,0-3.238,1.4,6.229,6.229,0,0,0-1.112.8,12.6,12.6,0,0,0-1.017.923c-.429.412-.764.761-1.155,1.151a1.712,1.712,0,0,0-.3.345,8.036,8.036,0,0,0-.889,1.066l-.173.231a8.1,8.1,0,0,0-.983,1.312,9.121,9.121,0,0,1-.583.975,9.935,9.935,0,0,0-.713,1.089l-.963,1.876a3.706,3.706,0,0,0-.517,1.087c-.262.67-.482,1.221-.729,1.889-.075.03-.717,2.2-.975,2.954a6.665,6.665,0,0,0-.247,1,38.276,38.276,0,0,0-1.1,5.017c-.247,1.649-.466,3.159-.56,4.788l0,.512a63.919,63.919,0,0,0,.2,10.906,65.105,65.105,0,0,0,2.916,14.392c.349,1.12.668,1.987,1.027,3.07l.5,1.474c.569,1.587,1.557,3.9,2.158,5.442l-.506.033c-.707-1.65-1.955-4.8-2.041-5.067-.343-.924-.589-1.6-.906-2.452a9.827,9.827,0,0,0-.375-1.017c-.425-1.153-1.844-5.959-2.229-7.308-.271-.931-.465-1.734-.657-2.65a83.75,83.75,0,0,1-1.475-8.949" transform="translate(-121.116 -72.653)"/><path class="d" d="M184.445,67.841l.118,1.6a67.4,67.4,0,0,1,.134,8.179,5.978,5.978,0,0,1-.084,1.127,40.456,40.456,0,0,1-.41,4.321,22.934,22.934,0,0,1-.369,2.346,2.705,2.705,0,0,1-.133.638c-.185,1.073-.446,1.979-.712,3.024a12.567,12.567,0,0,1-.544,1.6c-.423,1.256-.781,2.149-1.258,3.274a12.822,12.822,0,0,1-.754,1.6c-.049.1-.022.18-.116.207-.341.522-.552.972-.891,1.458-.341.523-.586.994-.912,1.437l-.742.978c-.48.631-.86,1.122-1.389,1.722-.313.382-1.852,1.982-1.906,1.988-.3.3-1.213,1.157-1.213,1.157a21.687,21.687,0,0,1-2.2,1.381c-.032.019-1.457.718-1.549.75a7.8,7.8,0,0,1-5.766-.071c-.327-.123-1.043-.481-1.105-.515l-.21-.134a9.157,9.157,0,0,1-1.108-.771c.012-.061-.008-.077-.089-.069-.242-.273-.556-.492-.861-.814a2.931,2.931,0,0,1-.462-.56,10.6,10.6,0,0,1-1.454-2.046l-.475-1.048s-.579-1.878-.746-2.779a21.029,21.029,0,0,1-.231-5.846l.109-1.065a14.587,14.587,0,0,1,.8-2.545,5.071,5.071,0,0,1,.659-1.042c.386-.431,1.66-1.349,2.779-.548.023.017.024,10.834.024,10.834a8.5,8.5,0,0,1-2.545-4.228,11.192,11.192,0,0,1,.19-5.085,5.155,5.155,0,0,0-.555,1.306,14.739,14.739,0,0,0-.177,6.663,7.814,7.814,0,0,0,.481,1.673,10.9,10.9,0,0,0,.5,1.128c.31.553.57,1,.915,1.529l.38.473.193.2c.143.063.058.168.171.157a9.456,9.456,0,0,0,1.085,1.088c.074.148.159.039.171.157.081.033.1.008.109.089a1.982,1.982,0,0,1,.5.379l.182.077a1.99,1.99,0,0,1,.479.285c.283.09.349.162.547.22a6.689,6.689,0,0,0,3.787.4,13.845,13.845,0,0,0,3.238-1.4,6.272,6.272,0,0,0,1.113-.8,12.583,12.583,0,0,0,1.017-.922c.429-.413.764-.761,1.154-1.152a1.7,1.7,0,0,0,.3-.345,8.029,8.029,0,0,0,.889-1.065c.06.012.173-.232.173-.232a8.1,8.1,0,0,0,.983-1.312,9.116,9.116,0,0,1,.583-.976,9.979,9.979,0,0,0,.713-1.089l.963-1.876a3.7,3.7,0,0,0,.517-1.088c.262-.669.481-1.221.729-1.889.075-.03.716-2.2.975-2.954a6.751,6.751,0,0,0,.247-1,38.35,38.35,0,0,0,1.1-5.016c.246-1.65.466-3.159.559-4.788l0-.511a63.921,63.921,0,0,0-.2-10.906,65.117,65.117,0,0,0-2.916-14.392c-.349-1.12-.668-1.987-1.027-3.069l-.5-1.475c-.569-1.587-1.107-3.057-1.708-4.6l.324.011,1.772,4.18c.343.924.589,1.6.906,2.452a9.9,9.9,0,0,0,.375,1.017c.426,1.153,1.844,5.959,2.229,7.309.271.931.465,1.733.656,2.65a83.489,83.489,0,0,1,1.476,8.949" transform="translate(-137.819 -41.274)"/></g><path class="a" d="M186.919,174.549l6.2-14.3,6.079,9.458,3.732-13.46,5.909-1.738-8.791,27.057-.143.059-6.722-11.146-7.244,16.842-.107.044-8.435-20.03,6.017-3.127Z" transform="translate(-72.217 -52.84)"/><path class="a" d="M250.595,149.778a4.948,4.948,0,0,0-4.367.034c-1.075.438-2.686,1.7-2.687,2.912,0,3.666,10.992-3.207,10.986,5.269,0,5.18-4.3,9.456-9.423,11.545-3.044,1.242-6.195,1.686-8.521.753l3.656-5.863c1.145.777,2.792.71,4.618-.034,1.253-.511,3.223-1.886,3.224-3.367,0-3.6-10.992,3.039-10.987-5.235,0-4.575,4.518-8.972,8.958-10.783a11.274,11.274,0,0,1,7.876-.557Z" transform="translate(-99.834 -47.924)"/><path class="b" d="M184.736,173.738l6.2-14.3,6.079,9.457,3.732-13.46,5.908-1.738-8.79,27.057-.143.058L191,169.668l-7.243,16.843-.107.043-8.433-20.03,6.016-3.127Z" transform="translate(-71.199 -52.462)"/><path class="b" d="M248.412,148.967a4.953,4.953,0,0,0-4.368.033c-1.074.438-2.687,1.7-2.687,2.912,0,3.667,10.993-3.206,10.987,5.27,0,5.18-4.3,9.456-9.424,11.545-3.043,1.242-6.194,1.686-8.52.753l3.656-5.863c1.145.777,2.792.71,4.618-.035,1.254-.511,3.224-1.886,3.225-3.366,0-3.6-10.992,3.038-10.986-5.236,0-4.574,4.517-8.971,8.957-10.782a11.269,11.269,0,0,1,7.876-.556Z" transform="translate(-98.815 -47.545)"/><path class="a" d="M90.07,98.639,74,92.013l-.009,12.378L67.9,107.413l.017-23.882.072-.029,16.069,6.357.009-12.378,6.088-3.022L90.142,98.61Z" transform="translate(-21.121 -15.486)"/><path class="a" d="M124.774,73.658l.072-.029,4.808-14.2,6.158-1.4-11.189,27.6-.071.029L113.861,66.98l6.2-3.637Z" transform="translate(-42.567 -7.817)"/><path class="b" d="M88.223,96.761,72.155,90.135l-.009,12.378-6.088,3.021.017-23.882.071-.029,16.069,6.357L82.225,75.6l6.088-3.022-.018,24.151Z" transform="translate(-20.26 -14.609)"/><path class="b" d="M122.928,71.781l.071-.029,4.807-14.2,6.159-1.4-11.189,27.6-.071.029L112.014,65.1l6.2-3.637Z" transform="translate(-41.705 -6.941)"/><g transform="translate(98.592 41.282)"><path class="d" d="M165.229,42.94V41.294l1.7,0c5.067,3,9.038,11.517,9.854,13.027C176.784,54.316,172.9,46.607,165.229,42.94Z" transform="translate(-165.129 -41.289)"/><path class="d" d="M186.46,64.423l.689,2.495,2.371-1.038L188,67.974l2.289,1.207L187.7,69.3l.484,2.543-1.7-1.949L184.8,71.854l.463-2.547-2.587-.094,2.279-1.227-1.539-2.081,2.38,1.017Z" transform="translate(-173.269 -52.084)"/><path class="d" d="M165.042,51.306V50.039c4.348.906,8.056,5.225,8.833,6C173.875,56.039,169.218,51.625,165.042,51.306Z" transform="translate(-165.042 -45.372)"/></g><path class="d" d="M128.22,220.324c.007-.418-.067-.915.431-1.209a2.075,2.075,0,0,1,1.227-.58l.081-.027a2.5,2.5,0,0,1,.174-1.062,3.007,3.007,0,0,1,.678-1.161,5.89,5.89,0,0,1,.656-.545,4.23,4.23,0,0,1,2.789-.717,3.129,3.129,0,0,0,.637.031,3.51,3.51,0,0,1,1.3-2.582c.194-.147.4-.281.644-.44l.323-.148a6.583,6.583,0,0,1,1.523-.452,7.431,7.431,0,0,1,3.738.317,4.605,4.605,0,0,1,1.25.639h.049a5.115,5.115,0,0,1,1.049,1.06,4.058,4.058,0,0,1,.671,2.6,3.856,3.856,0,0,1,2.538-.209v5.481l-.1,0-19.164-.008c-.2-.115-.233-.193-.351-.44l-.141-.548" transform="translate(-49.267 -79.355)"/><g transform="translate(23.502 72.315)"><path class="a" d="M30.044,102.884v10.557l.169-.062L38.011,100l5.689-.527L36.037,112.4l7.935,8.366-6.1,3.739-7.664-8.84-.169.062v10.8l-5.79,2.64V105.524Z" transform="translate(-24.254 -99.473)"/></g><g transform="translate(22.642 71.553)"><path class="b" d="M28.43,101.454v10.558l.172-.062,7.8-13.38,5.688-.525-7.663,12.923,7.935,8.366-6.1,3.739-7.661-8.84-.172.062v10.8l-5.788,2.641V104.094Z" transform="translate(-22.642 -98.044)"/></g></g></svg>